<?xml version="1.0" encoding="UTF-8"?>
<svg id="Lager_1" data-name="Lager 1" xmlns="http://www.w3.org/2000/svg" version="1.1" viewBox="0 0 1500 1500">
  <defs>
    <style>
      .cls-1 {
        fill: #fff;
        stroke: #fff;
        stroke-miterlimit: 10;
        stroke-width: .2px;
      }
    </style>
  </defs>
  <g>
    <path class="cls-1" d="M281,608.9c2.6-2.7,5.1-5.4,7.7-8.1l.4-.3,1.5-1.9c4.1-4.5,8.1-9.3,12.2-13.2,4-3.8,5.2-8,4.7-13.2-.2-2.3,0-4.7.6-6.9,2.4-9.1,5.2-18.2,7.7-27.3,2.1-7.8,3.5-15.8,6.2-23.4,1.8-4.7,5.3-8.8,7.9-13.3,3.9-6.7,7.8-13.3,11.4-20,3.6-2.3,7.2-7.8,8.2-11.6,1.7-1.6,16.7-21.9,16.9-25.3l1-1.9c3.2-5.8,6.3-11.7,9.7-17.2,11.1-18.5,22.5-36.9,33.8-55.3.8-1.3,1.6-2.6,2.2-3.8,3.3-2.2,9.9-9.3,10-11.8,5.8-6.2,11.6-12.7,16.9-18.9,2.7-3.2,5-6.7,7.2-10.1.3-.4.5-.8.7-1.2,3.2-2.8,5.9-5.8,9.2-8.1,2.9-2.1,6.6-3.5,10.1-4.5,5.6-1.5,10.5-3,11.3-10,.2-1.8,2.1-3.8,3.7-5,14.9-11.1,30.1-21.7,47.3-29.1,3.4-1.4,6.5-3.4,9.7-5.1.7-.3,1.5-1.1,2.2-1.1,8.4.5,13.2-6.6,20.5-9.2l1.4-.4c5.6-3.1,10.2-5.8,15.9-8.8,7.5-4,15.1-8.1,23.1-12.1.3,0,3.4-1.3,3.7-1.8,7.5-2.6,14.8-5.3,22.4-8,5.1-1.3,9.8-2.6,14.5-3.9.3.5.5,1,.8,1.6-1.4,1.1-3.1,2-4.2,3.3-1.2,1.4-4.5,6.8,2.3,6.8s13.6-.4,20.4-.7c5.8-.3,10.4,1.3,14.7,5.6,9.9,9.9,21.7,16.9,34.9,21.5,2.8.9,5.5,2.3,8.6,3.4,1-.1,1.7,0,2.4.3,2.4,1.4,4.8,2.6,7.6,3.7,2,.4,3.7.8,5.4,1.5,2.8,2.2,5.6,4.1,8.7,6.2,1,.5.5.5,1.2,1.2,0,.4,1.2.8,1.2.8.7.5,1.3,1,1.9,1.8,1.1,1.9,2.3,3.5,3.5,5.4.5.7,1,1.1,1.7,1.7.2.2.4.4.5.6,0,.3,0,.8,0,1.4.3,1.4.5,1.9.8,2.7l.4.4c-.4.3-.3.9-.3,1,.4,2.8.3,4.9,3.9,4.5l.5.2c.2.3.2.8.4,1.3-.2.5-.4,1-.5,1.6,0,.2,0,.4.2.7-.5-.2-.6-.2-.9-.2,0,0-.6.4-.7.5.3,1,.7,1.8,1.1,2.4,0,.2,0,.3,0,.5,1.5.8,3.1,1.3,4.6,1.6,2.1.4,4.2.8,6.4,1.5.5.3-1,.5,1.6.5s.2,0,.3,0c.3.3,1,1.2,1.1,1.4,1.4,1.4,2.7-.2,3-.5h0c1-.1,1.8-.3,2.5-.6.2,0,3.8.7,5.5.8l.8.2,5.2-.4c2.1.7,4.1,1.2,6.5,1.7.3,0,.6-.1.9-.2,4.4.7,9.6,1.5,13.6,2.1,0-.4.2-.9.2-1.9-.4-1-.8-1.5-1.5-2-2.5-.6-7-1.6-7-1.6-.2-.4-.4-.9-.8-1.1-.2,0-3.9-2-5.5-2.3.8-1.5,1.8-3.6,2.5-5,.2,0,.4.1.4.2,1.8.9,2,.8,3.3.5,1,0,1.6-.2,2.3,0,.7.7,3.2,3.9,3.9,4h.4c0-.2.4-1.3,1-2.5.7-.5,1.4-1.1,1.8-1.7.6-.2,1.2-1.1,1.4-1.8,1.3-.2,4-.4,4.7-1.5.9-.3,1.7-.6,2.3-.9.9,0,1.7-.1,2.4-.4,1.2.9,2.5,1.8,4,2.9v.9c.6,2.7,1.5,4.7,2.2,7,3-3,4.7-6.2,6.5-9.2.4-.6.8-1.2,1.2-1.7.6-.6,1.3-1.2,1.9-1.8,1.2-.9,2.7-1.3,4.8-1.3l1-.2h.7c2.4,0,4.3-.8,7.2-1.3v-5.8c-2.3-.3-4.9,0-7-1-.9-.4-1.2-2.4-1.7-4.6,0-.1.2-.2.3-.3,5.3,3.8,4.3-1.6,6-3.4l1.5-.4c2.7,3.4,8.3,5.3,7.7,12,1.2-1.1,2.1-1.9,3.4-3.1.4-.8.7-1.5.9-2.2.3-.2.5-.5.8-.8,1.1-4.2,1.8-9.1,2.5-13.1.3-2,.7-4.8.7-6.7h0c.5-.8.6-1,.9-1.5v-.3c.3-.5.3-1.4.2-1.9.3-.9.7-1.7.7-1.7v-.7c1.1-1.8,1.8-3.3,2.4-5,2.3-.4,5.5-1.4,7.3-2,.4.1.8.2,1.3.2,1.2,1.3,3,3,3.6,4.1,3.3-5.2,4.8.4,7.3.6v.4c-.6,7-1.2,13.3-1.8,19.7h0c.8.5,1.7,1,2.7,1.3.6-2.7.9-5.1,1.4-7.5.4-1.9.9-3.9,1.5-6.3v-.3c.5-.9,1-2.1,1-2.6.3-.5.3-.8.5-1.4,0-.1.2-.3.3-.4,1-1.2,1.9-2.1,2.4-3.2l1.2-2c.6-.7.5-1.8,1.3-2.9.9-.1,2.1-.4,3.2-.5h2.2l1.7-6c.7-.2,5-1,5.2-.9,0,0,.7.9,1.4.8,0,.2,0,.3.2.4.9.4,2.7.6,4.3.7,1.3.9,3.9,2.3,4.5,2.3h0c.7.6,1.3,1,2.3,1.6.2,0,.5.1.7.2,7,3.1,13.8,6.2,20.8,8.9h0c.8.3,2.5,1,4,1.5.7,1.2,1.8,2.7,3.1,3.5.6.5,1.3.8,2,1.2,2.5,1.9,5.2,3.9,7.8,5.6,8.7,2.4,10.5,7.8,9.1,15.4-.5,3,0,7,3.8,7.9,0-.2.3.3.2.3.3,1.1.8,4.5,1.3,5.1l.7.8c.3,1,.6,1.8,1,2.3,0,0,.2,0,.3.1.3,2.5,1.7,2.5,2.8,2.8l.9,1c2.8,3,5.2,7.4,8.3,7.9,6.4,1.1,11.5,4.1,16.7,7.1h0c.6.8,1.2,1.2,1.9,1.9.9.6,1.8.9,2.9,1.2.2,0,.3,0,.5.1,1.4.6,4.4,1.3,4.5,1.4.9.5,1.6.6,2.7.6.3-.1.6-.2.9-.3,5.2-.5,10.6-1.4,15.5-1.7,2.3,0,5,.4,6.9,1.6,4.9,3.1,9.3,6.9,14,10,0,1,1.7,2.3,2.6,2.6.5,1,2.9,2.2,4.2,2.6,0,0,.2.1.2.2.3.6.4,1.4,1.5,1.8h0c2.9,3,5.3,7.8,10,8.2,1.8,1.1,3.6,2.3,5.3,2.8,0,0,0,.2,0,.3.2.7.4,1,.8,1.4.3.4.6.7.9,1,.8,1.2,1.7,2.4,2.5,3.3h0c0,.3.9,1.3.9,1.3q.2.2.5.5c.6.7,1.1,1.3,1.8,1.7,0,.1.3.3.4.4.8,1.5,2,3.1,3.1,4.3.2,0,.4.2.6.2.4.2.8.4,1.2.4s.2.1.4.2c0,.1,0,.3.2.4,0,.4-.2.8,0,.8.4,0,.6-.2.7-.4,0,0,1.2,3,2.2,4.1v.3c.4.7,3,.6,3,.7-.3.5-.3.8-.3,1.4,1.9,1.9,6.2,5.3,6.3,5.4.4.8.9,1.6,1.3,2,0,0,2.4,3.2,3.9,4.6.9,1.5,2.3,3.2,3.1,4.4.6.7,1.1,1.4,1.9,2.6,2.5,3.7,4.6,6.8,6.8,9.9.6.8.5.5,1.1,1.7,0,.9.7,1.5.7,1.5.7.8,1.4,1.6,2.4,2.8.8.9,1.7,1,2.1,1.5s.3,1.7.7,2.5,1,1.4,1.7,2.1l.2.2c0,.4.2,1,.5,1.9.3.7,2,1.9,3.1,2.3.2.9.5,1.4,1,2.3.4.5.6.7,1.3.7,0,0-.3,1,.2,1.7,1.7,1.6,2.9,2.7,4.2,3.9.6.5,1.1,1.1,1.9,2.1.7,1.1,1.3,1.6,1.8,2.1.5.2,1.1.3,2.1.8,1.9-.1,3.3-.4,4.8-1.1-.4-2.2-.9-4-1.5-5.7-.7-2-1.5-3.7-2.5-5.8h0s-2.8-2.7-3.9-3.4c0-.4-.2-.9-.2-1.5s-.4-.9-.6-1.2c-.7-1.1-.9-1.5-1.5-2.9v-.8c-1.3-1.2-2.7-2.4-3.9-3.9,0-.3,0-.6-.2-.8-.4-1.1-1.4-1.6-1.8-2.5,0-.9-.3-1.6-.3-2.7-.3-.3-.7-1.2-.7-1.3-.3-.7-.6-1.6-1.1-1.9,0-.5-.8-2-1.2-2-1.1-1.3-1.8-2.6-2.5-4-1-1.9-1.5-4.1-2.8-5.7-3-3.6-7.3-6.4-9.5-10.4-5.5-10-14.4-16.9-21.7-25.3-3.7-4.2-11-6.1-9.1-13.5-1.8-.8-3.4-1.2-4.6-2.1-4.3-3.2-8.5-6.6-12.7-10-1.6-1.7-3.2-3.5-5.3-5.6-2.3-1.9-4.5-3.7-6.7-5.4l-1.9-9.1-4-8.3c0-.9-.2-1.8-.2-2.7l-.8-.2h-2.7c-1.7-2.6-3.2-4.8-4.7-6.9l-.7-1.5-.3-.2c-.2-.3-.5-.7-.9-1.2-3.1-2.5-5.1-2.7-8.1-5-2.3-1.8-4.6-3.7-6.9-5.6,0-.4-.6-.9-1.6-1.7-2.6-1.6-5.5-1.7-6.1-1.7-.6-1-1.3-1.9-2-2.7-.3-2.6-6.7-7-11-7.7,0,0-.6,0-1-.3-.4-.7-4-3.4-6.2-3-.3,0-.5.1-.5.3h0c-.7-.8-2-1.2-2.9-1.3-1-.8-2.1-1.6-3-2.1-.3-.3-.4-.4-.8-.7l-1.4-.7c-3.5-2.6-5.9-4.4-9.4-6.5-1.4-.8-3-1.2-4.6-1.7-1.8-1.6-4.8-4.3-6.3-5.1-.9-.5-6-.8-8.9-1-2.1-1-3.6-1.8-3.9-2.1-.5.4-1.8,1.1-2.5,1.7-1.2-.2-1.8-.2-2.5-.2,0-.2-3.9-11-10-12-3.6-3-8.4-5.3-12.7-5.1-.6-.4-9.5-3.8-10.2-3.5-3.2-.4-5.6-1.5-8-4-1.2-1.3-3.4-2-5.3-2.5-7.2-1.9-14.5-3.7-21.8-5.6-1.5-.3-2.8-1-4.2-1.5-4.5-1.7-8.9-3.8-13.5-5.2-3.2-1-6.8-1-10.2-1.6-6.1-1.1-12.1-2.3-18.2-3.4-3.3-1-4.8-1.8-5.5-1.9-.9,0-1.1,0-1.6.4l-.4.2c0,0-1.2,0-1.3.3h-.3c-.7-.3-2.1-.2-2.1-.2-.7-.4-2.3-.6-3.8-.7-2.7-.6-5.2-1.1-7.7-2.2-3.2-1.4-6-2-8.9-.3h-.7c-.9-.6-1.6-.8-2.1-1-.6,0-1.2-.2-2.5-.6-4.6-.7-8.6-1-12.5-1.4h-4.4c-1.3-.2-1.4-.4-2.4-.4s-2,.1-3.6-.2c-1.9-.4-3.2-.6-4.5-.6s-3.2,0-5.4-.5c-.9,0-1.7.4-2.3,1h-1.6l-.9-.3c-1.2-.3-1.8-.4-2.8-.6-1.3-.8-5.8-1-6.7-.5,0,0-.3.1-.4.2-3.6-.3-7-.1-10,.2h-.4c-.6,0-1.2-.1-1.7-.1-2.1-.8-7.4,0-7.6.2-6.3-.2-12.2-.2-18.1.2-4.8.4-9.4,1.5-14.2,2.3h-.7c-.7,0-2.1.7-2.1.7h0c-1.9-.5-3.6-.6-5.2-.6-7.9,1.1-15.8,2.2-24.6,3.2-2.5,0-2.9.2-4.5.4h-.6c0-.1-1.1-.2-1.1-.2-.6.2-1.2.5-2.5.6-3.6.4-6.6.9-9.5,1.4-.4.2-.8.4-1.2.6-5.6,1.1-11.7,2.1-16.7,3.7-14.2,4.4-28.3,9.4-42.5,13.9-3.7,1.2-7.9.9-11.5,2.3-8.1,3.1-15.9,6.9-23.9,10.3-9,3.9-18,7.7-27,11.6-5.2,2.2-10.4,4.4-15.3,7.1-7.2,3.9-14.2,8.3-21.3,12.4-1.9,1.1-3.8,1.9-5.7,3-4,2.3-7.9,4.7-11.7,7.1-.9.3-1.8.6-2.7,1-.9.3-1.2.6-1.4.8l-.9.9c-8.4,6-16.8,11.5-24.2,18.1-7.2,6.5-13.5,14-19.7,21.1-.6.4-3.1,1.8-3.3,2.1-.2.4-.4.7-.6,1.1-13.9,12-26.7,24.8-37.6,39.3-5,6.8-11.5,12.6-16.7,19.3-7.2,9.2-14.1,18.6-20.4,28.3-8.3,12.8-15.9,26.1-23.8,39.1h0c0,.1-.1.1-.1.1-.4.6-.9,1.9-1,2.3-1.8,3.8-3.6,7.6-5.2,11.2,0,.2-.2.4-.2.6-.2,1.3-.5,2.6-1,4.4-.9,1.7-1.4,3-1.9,4.2-.7,6.6-1.8,12.1-7.7,16.5-.4,0-1.5,2.1-1.5,2.1-1.5,4.6-2.5,7.6-4.3,12.6l-.7.7c0,.9,0,1.9.2,3.1l-.7,2.9c-.4.9-.8,1.7-.7,2.4h0c-1.2,2.6-2,5.2-3.2,8.1-.4.5-.5.8-.6,1.1-.7.5-1.6,1.2-1.9,1.7,0,.3,0,1.4.2,2.4,0,.2-.1.3-.2.5-.7.7-2.8,4.6-2.9,4.9,0,1.1.3,2.2.8,3.9v.4h0c-.9,1.1-1.3,2.2-2.2,3.5-1,1.5-1.1,1.7-1.1,1.7-1.8,3.9-3.4,6.4-1.8,11.2.4,1.4-1.8,3.7-3.4,6-1.2,2-2.4,5.1-2.3,5.3.4,3.9,2.5,7.7,0,11.7-.6.9-.1,3.2.5,5h0c-.3.5-.3.6-.3,1.1-.2.3-.3.7-.4,1-.4.2-.9.5-1.5.9-1.5,4.6-2.6,9-3.7,13.4-.3,4.8-.7,9.6-1.2,15.1-.4,2.2-.7,3.6-1.1,5.1-.3,1.7-.6,3.4-1,5.9-.4,3.8-.8,6.9-.8,10.1,2.8,2.8,5,1.5,7-.5l.2-.4ZM865.2,258.6h0Z"/>
    <path class="cls-1" d="M787.8,1333c-1.1-1.9-1.8-3.1-2.5-4.4-3-.5-5.9-.9-9.4-1.1-1.4,1.4-2.4,2.6-3.3,3.8v.3c-.3.3-.6.6-.9.9-1.9.6-2.8.7-3.1,1.9,0,.3,0,.7-.6.8h-.4c-3.1,0-5.4-.3-8,0-4.1.3-8.1.7-11.9,1.4,4.6.7,9,1.5,13.3,1.5s2.6,0,3.4.4c0,1.7,2.5,3.9,2.2,4.9-5.7,5.4,4.3,7.5,8.3,8.8,4.5,1.5,15.5.7,15.9-2.5.3-1.8-.5-4.4-1.6-7.1-.3-2.9-.7-6-1.4-9.5h0Z"/>
    <path class="cls-1" d="M581.9,1198.5l-2.6,3.5h0v.2c0,.8.3,1.5.3,2.6.2.9.6,1.4.6,2.2,0,1.6.4,3,.4,5.2.7,3.7,1.5,6.9,2.6,9.8,1.5-1.2,3.4-2.7,3.4-3.7-.8-6.6-2-13.2-3.1-19.8h-1.6Z"/>
    <path class="cls-1" d="M463.4,475.5c1.4,1.1,2.6,1.9,4,2.9.7.6,1.2.9,1.9,1.4.9,1,1.7,1.7,2.5,2.8,2.1,1.8,4.2,3.2,6.5,4.9,2.1,1.9,4,3.4,6,5.3,3.2,3.3,6.3,6.4,9.4,9.8,2.1,1.9,4.3,3.5,6.5,5.4,1.1,1,2,1.8,3.1,2.8.7.7,1.3,1.2,2,1.9.6.7,1.3,1.2,2,1.9,1.1.9,2.1,1.6,3.2,2.5,2.1,1.8,4,3.4,5.8,5.3.6.9,1.3,1.5,2.2,2.3.2.2.5.2.7.2,1.2.9,2.1,1.7,3.2,2.8,1.5.5,2.7.7,4.3.8.2.7.8,1.3,1,1.7.5,0,.8-.2.8-.2-.3-.7-.9-1.6-1.5-1.9-1.3-2.6-2.8-5-4.5-7.6-.8-.8-1.4-1.2-2.1-1.9-7.8-4.8-12.2-12.2-16.9-19.8-.9-.7-1.5-1.1-2.2-1.8-1.6-1.3-3.1-2.3-4.7-3.7-1.5-1.4-2.8-2.5-4.2-3.9-2.9-3.4-5.8-6.6-8.8-10-2.1-1.4-4.1-2.5-6.1-4-1.3-1.1-2.5-2-3.9-3.1-.8-1-1.5-1.8-2.1-2.9-.7-1.5-1.3-2.6-2.1-4-2.8-4.5-2.1-7.2-7.4-11.5-2.2-1.9-3.8-3.6-4.3-3.7-2.2-1.7-1.8-1.4-3.8-3.2-1.7-1.9-3.2-3.5-4.8-5.4-.5-.4-.7-.6-.8-1.1-1.9-2.7-3.8-5.3-5.7-8.1-1.8-2.2-3.6-4.2-5.4-6.4-.7-.9-1.4-1.4-2.2-2.3-.5-.7-.2-.3-.7-1-.3-.6-.8-.9-.8-.9-.6,0-.4,0-1-.2-1.2-.7-2.1-1.1-3.2-1.8-1.1-1-2.1-1.8-3.2-2.8-1-1.2-2-2.1-3.1-3.3-1-1.7-1.9-3.1-2.9-4.8-1.5-1.9-3.1-3.5-5-5.5-2.3-2.6-3.2-3.6-5.2-5.8,0,0-.1-.2-.2-.2l-.4-.5-.4-.6c-1-1.7-2.2-3.8-3.7-5.9-2.6,4.1-5.1,7.4-6.9,10.9-.6,1.2.3,3.8.8,5.3,0,0,.1.5.2.5,1.3,5.2,2.8,9.4,4.3,14.1,4.7,10.1,9.4,20.2,14.1,30.3-.5.3-1,.6-1.5,1-8.3-4.7-15-12.7-25.9-13.8-3.2-2.1-5.9-5.8-8.8-1.4-2.8,4.2-5.2,8.7-6.9,13.3-.8,2.3,0,5.3.7,7.8.6,1.8,2.3,3.2,3.8,4.9,7.1,7.1,14,14,20.7,21.1,2.2,2.4,3.5,5.7,5.9,7.9,10.4,9.5,20.9,18.8,31.5,28,9.7,8.5,19.6,16.8,29.3,25.3,5.2,4.6,10.2,9.3,15.3,14h0c.9,1.4,1.8,2.6,3,3.4.5-.7.7-1.5.5-2v-.2c-.1-1.7-.5-3.4-.9-5.4-.8-2-1.6-3.6-2.6-5.4-1-.9-1.8-1.5-2.7-2.5-.6-.9-1.1-1.4-1.6-2.2-.7-.7-1.3-1.2-2.1-1.9-.8-.8-1.4-1.2-2.2-2-.9-1-1.7-1.7-2.7-2.7-1.6-1.3-3.1-2.3-4.7-3.7-.5-.7-.9-1.1-1.4-1.7-.7-1.1-1.2-1.8-1.8-2.9-.8-1.4-1.5-2.6-2.2-4.1v-.4c-1.9-2.3-3.2-4-4.8-6.6,0-.3-.4-1-.4-1-1.9-.8-4-1.2-5.5-2.4-2.6-2.1-4.7-4.7-7.1-7.5-1.1-1.7-2.1-3.2-3.2-4.9-2-2.1-4.2-3.7-5.8-5.7-4.6-5.8-10.1-11-13.1-18-.3-.7,0-1.6,0-4,6.4,1.7,12.3,3.2,18.3,5,.4.3.8.4,1.4,1,2.8,1.9,5.3,3.4,7.8,4.9.3-.2.6-.3.9-.5-2.2-4.6-4.3-9.2-6.6-14.1-.6-1-1.1-1.6-1.5-2.6-.4-1.4-.8-2.5-1.3-3.9-.3-1.2-.7-2-.9-3.1-.2-1.1-.5-1.8-.8-2.9-.2-1.4-.3-2.3-.5-4.2,1.9,1.3,3.1,2.1,4.4,3.2,7.4,5.8,14.5,11.2,21.8,16.9h0Z"/>
    <path class="cls-1" d="M543.3,488.4c1.1-1,1.8-1.7,2.8-2.5,3.4-3.5,4.8-7,1.6-11.3-1-1.2-.8-3.1-1-5.1.2-1.5.4-2.6.7-4v-4c-1.4-7.1-2.9-13.8-4.2-21-.5-3.1-1.2-5.8-1.8-8.9-.3-.4-.3-.9-.3-1.5-.7-1.6-1.6-2.9-2.5-4.6-.5-2.1-.9-3.8-1.3-5.9-.3-4.1,0-7.6-1-11.6-.6-.9-.8-1-.8-1.6-.4-2-.8-3.8-1-5.8-1-3-1.4-3.9-2.6-7,0-.3,0-1-.8-2.4-1.6-2.3-3.5-3.9-5.5-6.3-1.8-2.2-3.4-4-5.2-6.1-1.4-1.9-2.7-3.4-4-5.3-3.1-6.3-5.6-12.6-9.3-18.2-2.7-4.2-4-10.2-10.5-11.5-.8-.4-1.3-.5-2.1-.8-1.6-.3-3-.4-4.7-.7-1.9-.8-3.6-1.5-5.7-2.6-10.6-7.1-21.2-.4-32.1-2.3.4,2.5,1,4.3,1,6,.3,6.3.4,12.2.5,18.5h0c.2,1.7.6,3.7.8,5.8.4,1.3.7,2.2,1.1,3.4.4,1.8.8,3.2,1.1,4.9v3.9c.2,1.4.5,2.4.7,3.8.3,1.8.6,3.2.9,5,.5,2.6,1,4.7,1.4,7.2.8,3.9,1.6,7.4,2.4,11.3,1.1,3,2.1,5.6,3.1,8.6.6.8,1.2,1.3,1.8,2.1,2.1,3.8,4.3,7.2,6.6,11,.4.8.8,1.2,1.2,1.9,1.2,1.7,2.3,3,3.5,4.8,2,3.7,4,7.1,6.2,10.8,1.2.9,2.3,1.7,3.5,2.6,1.9,1.4,3.6,2.5,5.5,3.9.8.6,1.4.9,2.2,1.4,1.4,1.5,2.7,2.9,4.1,4.5,1,1.4,2,2.5,3,3.9.4.8.7,1.3.9,2.1,3.5,3.6,7.1,7,10.9,10.6,1.6,1.2,3.1,2.1,4.8,3.3,2.8,2.1,5.7,3.5,7.6,5.8,2.8,3.6,12.6,6.5,16.4,3.9h0ZM517.5,457.5c-.7-1.9-2.2-3.8-3.7-5.1-3.6-3.1-7.9-5.6-8.7-11-.2-1.2-2-2.2-2.9-3.3-2.2-2.6-4.5-5.2-6.5-8-2.9-4.1-6-8-8-12.5-2.6-5.9-4.2-12.3-6.2-18.5h0v-1c-.2-2.6-.5-3.4-.6-5.4-.2-3.7-.4-7.6-.4-11.1s2.3-3.7,4.8-2.9c4.7,1.5,9.4,3.1,14.1,4.8,7.6,2.8,10.7,10.2,15.3,15.9,9.9,12.1,14.6,26.7,18,41.7,2.5,10.8,5.2,21.6,7.7,32.4.5,2,.5,4.2.8,7.2-2.1-.7-3.5-1-4.7-1.7-8.6-5-15.7-11.4-18.9-21.4h0Z"/>
    <path class="cls-1" d="M799.3,346.7c-.3-.9-.6-1.4-.8-2.2-1.2-3-2.5-5.8-3.7-8.9-1.8-6.5-3.7-12.9-5.7-19.3h0c-.2-1.4-1.1-2.7-2.2-4.1-8.8-2.1-16.9-3.6-25.1-5.3-5.3-1.1-7.9-5-10.3-9.3-.8-1.5-2.3-3.1-3.6-4.1v.3c.3,4.3.3,10.7,1.1,14.7-.3,1.5-.4,2-.4,3.5v.7c0,0,0,.7,0,.7l-.3,1.8c0,1.9.4,1.8.5,3.7-.4,1.8-.8,4.1-.7,5.8,0,.2,0,.5-.2.7-1.3,6.3-2.3,12.5-3.1,18.7-.3,2.9,0,5.9,0,8.8.2,3.6.5,7.8.8,11.8-.3,1.4-.5,2.5-.8,4.1-1,5.7-1.9,10.9-2.8,16.1-.5,2.8-1.6,5.5-1.6,8.3,0,12.5-.5,25,.5,37.4.7,8.3-.4,16.1-2.1,24.1-.6,2.6-1.7,3.3-4.2,3.8-3.5.7-6.8,2.2-10.2,3.4,8.2,3.7,15.9,6.7,23.4.2,1-.9,2.9-.5,4.3-.9,6.9-2,14.1-3.6,15.8-12.4.3-1.9,2.3-3.4,3.5-5.1.7-1.1,1.6-2.3,2.2-3.5,1.1-2.3,1.8-4.7,3.1-6.8,4.1-6.5,5.7-13.6,6.8-21.1,1.4-9.2,4.6-18.1,7-27.2,0-.5,0-1.2.4-1.4,5.7-3.6,4.4-9.4,6.2-14.7.5-1.1.2-1.2.2-1.9.2-2,.2-3.5,0-5.4,1-2.9,1.8-6.2,2.7-9.9.4-1.3,0-3.5-.5-5h-.1ZM781.2,366.2c-2.5,14.5-3.8,29.3-7.2,43.7-2.8,12.1-7.8,23.6-12.1,35.3-.6,1.5-2.3,2.8-3.8,3.7-3.4,2-7,3.7-11.5,5.9,1.4-8.2,2-15.7,4.1-22.7,2-6.7,2.9-13.2,2-20.1-.5-3.6-.3-7.8,1.1-11.1,4.5-10.2,5.4-21.3,7.1-32.5h0c2.8-8.8,5.3-18.8,7.6-27.3,3.7,3.9,7.6,7.6,10.9,11.8,1.2,1.5,1.2,4.6,1.8,7.1.5,1.8-.3,4.5,0,6.1h0Z"/>
    <path class="cls-1" d="M722.5,356.2c.6-.4,1-1.7,1-2.6.7-6.9,3.3-13.6.5-20.6-.5-1.2.3-2.8.5-4.3,1-7.6,1.9-15.3,3-23,0-1.2,1-2.4,1.7-4v-.2c0-1.1,0-2.6-.4-2.6-7.8-1.7-15.6-3.3-23.5-4.4.2,7.3.7,6.4.7,21.2s-.3,29.5-.5,44.3c0,.8.3,1.7.5,3.2,0,2.5-.3,4.4-.3,6.3h0c-.5,2.5-.2,4.2-.5,6.7v1.7c-.2,5.1-.4,9.3-.7,14-.5,7-1.1,14-1.6,21,0,1.4.2,2.8.4,5.1.3,4.6.4,7.8.7,11.5v1c0,1.7-.3,4.5,0,6.1-.7,1-.4,2.5-.2,2.9.6,5,1.4,9.8,2.1,14.5v1.6c.3,3.8.7,7.2,1.1,10.7h2.2c.5-4.5,1-9,1.3-13.4,0-.3.3-.6.4-1,1.1-3.1,1.6-5.8,2.1-8.4h0c.2-1.2.3-2.2,0-3.1,0-.2,0-.3,0-.5.4-.8.4-2.6,0-3.2-.2-3.3-.7-6.8-1.2-9.7,0-.3,0-.6,0-.9,0-1.8,0-3.4-.4-4.8v-.6c3.6-7.3,4.3-14.4,3.2-21.7,0-.6,0-1.2.4-2.3.7-5.9,1.3-11.3,1.8-16.7v-2.2c.5-2.4.8-4.1,1.1-6.2-.2-1.1-.2-2.6-.6-3.4,0-4.9.6-9.2,5-12.1h.2Z"/>
    <path class="cls-1" d="M620.4,1095.7c3.1,1.3,6.5,2.2,9.9,2.9,2,.3,4.1,0,6.7,0-1.1-2.5-1.6-3.9-2.5-5.9,3.5,1,6.1,1.8,8.4,2.5-.8-2.5-1.7-4.8-2.2-7.1-1-4.9-4.8-6.4-9.2-3.8-.8.6-2,0-3.3,0h-.2s-.5-.5-.6-.5c-3.1-3.3-4.4-.4-4.9,2-.8.8-1.2,1.4-1.4,2.4,0,0,0,.4-.2.4-.6,2.3-5.4,5.1-.5,7.2Z"/>
    <path class="cls-1" d="M645.3,1297c-2.7-1.1-4.1-1.9-5.3-2.1h0c-1.4-1.2-2.5-2.3-4-3,0,0-.2.2-.3.3,0,0,.2-.2.3-.4-1.5-2.5-3.4-4.7-5.3-6.9,0,0,0-.2-.2-.2-.9-1.2-1.6-2.2-2.5-2.7h-.2c0-.3-.4-1.1-.8-1.1-1.1-1.9-2.6-3.5-4.2-5.1-1.5-1.4-3.1-2.8-4.6-3.9h-.6c-3.4,0-4.3-1.9-5.1-4.2-.8-2.4-1.7-4.7-2.5-7h0c0-.9-3.7-4.8-5.6-6.3h0c-.4-1.3-.6-1.8-1-2.4,0,0,0-.2,0-.3,0-.2,0-.3-.2-.5h0v-.2c-.5-1.1-.9-2.3-1.4-2.7h0c-.4-1.1-.8-2.1-1.3-2.8h-.3c-1-1-2.2-2.2-3.2-2.8v-.2c-.5-1.9-.7-2.7-1.2-4v-.2c0-.6-.8-2.7-1.4-3.2-.7-2.7-1-5.2-1.8-7.6-3.2-1.7-3.5.9-3.5,2.7v6.8h-.2v.3c.3,2.1.5,3.5.5,5.2.5.9,1,1.7,1.7,2.8h.2c0,.2,0,.6.3,1.1.5.5.7.7.9,1h.2v1.8c.4.7,2.6,2.4,4.1,3.8.5,1.1.9,1.9.9,2.7v.3s0,.3.2.4c.3.5.5.9.9,1.4.8,1.8,1.9,3.9,2.3,4.7,2.8,4,5.2,7.6,7.6,11.2.4.2,1,.4,1.8.2,1.3,1.7,2.6,3,4.3,4.7.6.5.6.7.6.9-.2.2,1.7,1.8,2.3,2.1,2,2.3,4,4.6,5.8,6.6h0s.2.2.3.3c-.2.7,1.1,2.2,1.4,2.8h0v.2h.2c.5.6,1.2,1,1.2,1,1.2,1.3,1.9,1,3.6,2.3-.2.6.5,1.9.8,2.1.2.4,1,.7,1.7.8.8.7,1.7,1.3,2.6,1.9,0,.6.5,1.1.9,1.3h0s6.7,3.6,7,3.4c.4-.3-5.6-4.1-5.6-4.3.7-.2,1.1-.3,1.5-.5h0c1.7-.5,3.3-1,6.1-2.3v-.2ZM603.2,1251.3h0Z"/>
    <path class="cls-1" d="M1149.8,453.5l-.3-.3v-.7l-.2-.3c-.6-1.2-1-2.1-1.7-4-.8-2.7-1.4-4.7-2.1-6.8-1,2.4-1.5,5.1-3,7-1.6,2-4.1,3.3-6.6,5-7.1,4.3-14,8.4-20.6,13-6,4.2-11.6,8.8-17.2,13.4-13,10.7-25.9,21.6-38.9,32.4-11.2,9.3-22.4,18.5-33.6,27.7-1.3,1-2.6,1.7-4.3,2.8h-.8c-2.8,1-5.6,1.9-9,3.1-4.4,2.7-8.1,5.2-12,7.8,2,2.4,3,4.3,4.5,5.2,5.4,3.2,9.5,7.4,12,13.3,1.3,3,3.6,5.6,5.7,8.6,1.6,1.5,2.9,2.9,4.2,4.3h0v.5c-.5,5.1.5,5.5,4.1,4.1.3,0,.4-.3.5-.5,13.7-6.5,24.9-16.9,25.2-23.1-7.1,3.5-14.6,7.1-22.1,11-.3,0-.2,0-1,0h-1c-.7-.2-1.4-.3-2-.4-.7-1.1-1.6-2.3-2.1-2.7,0,0,0-.3-.2-.5-1.2-3.2-1.8-6.2-3.6-8.2-7-8.2-7.2-9.5-.3-16.3,1.1-.4,2.4-1,2.9-1.5,0,0,.2-.2.3-.3.4-.2.8-.4,1-.6,0,0,.6-.4.7-.4,12.4-8.5,23.8-16.6,35.1-24.8,7.7,6.7,14.7,12.7,22.1,19.1.5-1.5,1-2.2.8-2.7-2.1-6.7-3.9-13.6-6.6-20.1-1.1-2.6-2.6-4.6,0-6.5,3.3-2.4,6.8-4.5,10.3-6.7,10-6.2,19.9-12.4,29.9-18.5,1.1-.7,2.4-1.2,3.7-1.3,6.2-.7,11.3,2.2,16.5,4.9,3,1.5,3.3,3.5,2.2,6.1-.6,1.5-1.4,3-2.4,4.3-3.6,4.9-7.3,9.6-11.1,14.5,7.4,1.2,32.3-15.7,41.7-27.8,1.2-1.1,2.5-2.3,3-2.9-2.3-4.1-4.2-7.6-6.5-11.2-1.5-.7-2.8-1.4-4-1.9h0c-4.2-5.7-8.6-10.8-13-16.7,0,0-.2-.5-.4-.6v.3Z"/>
    <path class="cls-1" d="M1236.4,622.1c.2-1,0-1.4-.4-1.9-1.8-2.3-3.6-1.7-5.2-.7h0l-1.9-4.4c.2-1.1.3-2.3.2-3.3l1.7-3.4c2.9-2.7,3.4-5.4.6-7.8,0-.2,0-.4.2-.6-.3-.6-.6-.8-1.1-1.1-.3,0-.5,0-.7-.2-.2-.3-.5-.6-.7-.8h-.9c0,0-.2-.2-.3-.3v-.5l-1.2-.6c-.2-.2-.4-.4-.7-.5,0,0-.3,0-.4-.2l-.2-.3-2-2.5h0l-.9-1.1c-1.3-4.4,0-10-3.9-13v-1c1.9-4.6,1.7-9.5,7.2-12.2h0l1.5-1.1c.7-.7,2.3-1.8,2.8-2h.4l.2-.3c.8-.7,1.3-1.6,1.7-2.3,0-.4-.3-.9-.3-2,.2-1.1.4-1.6.6-2-.2-.7-.4-1.4-.8-2.6-.6-.7-.8-1-1-1.2h-4.1c1.3-1.2,2.2-2.2,2.5-3.2,0,0,1.9-1.9,2.4-3.1,0,0-.2-.2-.3-.3v-.7c-.4-.2-.7-.3-1-.3-.2-.2-.5-.5-.8-.9-.5-.6-.9-.8-1.2-.8-1.8-.9-3.6-1.8-5.5-3v-.4c-.2,0-.4-.2-.6-.3,0-.5,0-.9-.2-1.1-.4.2-1.1,0-1.2,0-1.7-2.3-3.1-4.6-4.5-6.8-.3-.7-.9-1.8-1.4-2.2v-.7c.3-1,.5-1.8.5-2h-.2v-1.5c-.4,0-.8-.4-1.6-.4h-.2c0-.6-.2-1.2-.4-2,.4-.6.4-1.4,0-1.4-1.7-1.3-3.3-2.6-5.4-4.4-1.7-3-3.1-5.6-4.4-8.1-.4-.6-.7-1.2-1.2-2.4,0-1.1.3-1.5.3-2.3-.2-1-.5-1.9-.7-2.8,0-.7,0-1.3-.3-2.1-.3-.4-.8-.6-1.3-.8-.8-.7-2.2-1.7-2.9-1.9-.4-.7-.6-.9-.9-1.1-1-1.3-2-2.6-3.4-4.5-2.4-.6-6.3-.8-6.3-.8-1.8-.2-2.7,1.5-.2,3.3l.3,1.2c1.2,3.4,2,4.8,3.5,7.4.5.2.9.5,1.3.7,0,6.6.4,14.7,1.1,20.8.7,5.1,2.6,10,3.8,15.1,1.1,4.9,0,10.6,4.7,14.5.4.3-.2,1.8-.4,2.7-.2,1.1-.8,2.2-.8,3.2.3,5.4.7,10.8,1.3,16.2.3,3.1.3,6.7,1.1,8.7h0s.9,1.6,1.1,1.8c0,1.8.2,3.6.5,5.5,0,0,0,5.9.4,7.1,0,2.1.4,4,.8,5.9,0,1.4-.2,3.1-.3,4.4-.7,2.4-1.2,4.6-1.2,7.1h0v2.6c0,3.3.4,10.6.4,10.6-.3.4-.4,1.2-.4,1.9.2,5.4.2,9.9.5,14.8v.2c0,.2.2.9.3.9-.2.5-.2.6-.2,1.3-.3,1.7-.7,3.7-.8,4.6-.2,1.4-.4,2.1-.6,2.8.2,1.4.2,2.8.2,5-.2,7-.5,13.1-.8,19.2-.2,4.5-.5,8.3-.5,12.7s0,.5.2.5c0,.9-.8,1.3-.8,2.9s0,.3.2.6v.8c-1.7,7.7-3,14.4-4.2,21.8-3.1,19-4.2,37-11.3,55.2h0l-.2,1.4c-.5.8-.9,1.6-1.7,2.9-3.4,8.3-6.5,16.1-9.6,23.9,0,.6,0,1.2-.5,2.3-.9,1.6-1.5,2.7-2,4.2-.2.7-.4,1-.6,1.4-.2,1.1-.5,2.3-.9,3.7-.6,1.5-1,2.8-1.6,4.6-2,4.6-3.8,8.7-5.5,12.7,0,.6-.2,1.1-.5,2.3-10.6,17.8-20.9,35.1-31.5,52.1-5.4,8.7-11.4,16.8-16.8,25.2l-1.5,1.3c-.2,0-.3.3-.3.4v.5s0,.2,0,0c-3.5,4.2-7,8.6-10,12.8l-.2.2c-.6.2-.9.4-1.3.8-.2.3-.3.5-.5.7-.6.5-1.1,1-1.3,1.5-.7.4-1,.8-1.5,1.4-.4.5-.7.9-1.1,1.4-5.1,4.4-9.9,8.5-14.7,12.8h0l-.4.4c-.5.9-.8,1.4-1.7,2.7-2.3,2-4.1,3.5-5.9,5-.6.8-1.3,1.6-2.3,2.7-1.4,1.2-2.4,2.1-3.4,3-.5.6-1,1.4-1.2,2.2h-.2c-.4,0-.8.2-.8.4l-1,.9c-.2,0-.5.2-.9.3-2.2,1.6-3.7,2.9-5.5,4.2l-.2.2c-.3.3-.6.7-.8,1.3h0c-.6.2-1,.4-1.5.9-.6.4-3.8,2.3-5,2.8-5.2,2.2-10.2,4.3-15.5,6.3h-.5c-.8,1-1.5,2-2.5,3.4-.3,1.3-.3,2.2-.3,3h0c-.3,2.2-.6,4.2-1.2,6.6-.4.3-.4,1.2-.5,1.4-.3.2-.6.4-1.2.6-1,.5-1.7.9-2.7,1.5-1.5,1.5-2.8,2.9-4.4,4.3-.4.5-.4.8-.7,1.4-.9,1.1-1.5,2.1-2.5,3.1-.3.2-.4.3-.3.8-.5,0-1.8.2-1.8.2h-1.9l-.3.5c-1,1.4-1.8,2.9-2.8,4.4-.7.6-.9,1.1-.9,1.8-.6.2-.8.4-1.2.8,0,.2-.2.4-.3.6h-1.4c-.6.3-1.9,1.4-2.3,1.8-1.9,1.5-4.1,3.2-5.3,5-.4.2-1,.8-1.1.9-1,.3-2.2.9-3.4,1.1-.9.6-1.4,1.1-2.3,1.6-2,.9-3.6,1.7-5.6,2.6h-.4c-.4.9-1,2.3-1.5,3.5h-1.4c-1.2.4-2.1.9-3,1.6h0c-.3.3-.6.5-.9.8h-.9c-.3.3-.6.9-1,1.4h-.2c-.3,0-.3.2-.3.6l-.6.6c-1.5.3-2.8.8-4,1.2h0l-.2.2c-.3.5-.6,1-.9,1.8h0c-.8,0-1.9.4-2.8.4-.8.2-1.1.2-1.8.2l-.4-.2c0,.6-.5,1.1-.5,2.1v.4h0c-.5-.2-.8,0-1.3.6-2.5,3.2-6.4,7.1-9.2,10.5-2.9-.9-5.9-1.6-9.3-2.5-1.6,7.2-8.3,9.1-13.7,12.3-2.9,1.8-6.5,2.3-9.6,3.9-1.4.7-2.3,2.5-3.9,2.7-3.8,1.2-7.5,2.3-11.2,3.7-9.2,3.3-18.3,6.8-27.9,10.6-1.3.9-2.1,1.4-2.9,1.9-1,.9-2,1.7-3.4,2.8-.9.5-1.4.8-1.8,1-2.6,3.2-5.3,6.3-7.9,9.5.3.3.5.7.8,1,1.1,0,2.2,0,3.2-.2,9.3-1.7,18.6-4.7,28-4.9,7.2-.2,13.9-.8,21.4-2.7,1.1.2,1.5.4,1.9.4,1.6-.4,3.1-.9,5-1.4.2,0,.5,0,.8-.2.6.3.9.4,1.5.4s.2,0,.3-.2c.2,0,.8.2.8.2h.6c3-.3,5.2-.6,7.8-1.1,3.5-.6,18.2-2.8,21.4-3.7v-.2h0c1.1-.2,1.4-.4,1.9-.4,1.7-.7,3.5-1.3,5.8-2.1.9-.3,1.3-.5,1.6-.5,11-5.1,22.1-9.8,32.9-15.2,8.6-4.3,16.7-9.5,25-14.3,7.8-4.4,15.5-8.8,23.2-13.4,4.4-2.6,8.6-5.6,13.5-8.6,7.3-5.8,14-11.4,20.6-17.1,2-1.9,3.9-3.8,6.2-6,.6-.6.8-.8,1.2-.8,4.4-4.7,8.9-9.5,13.6-14.5.4-.4.7-.4.7-.4.4-.7.8-1.4,1.5-2.1l.6-.2c4.5-4.9,8.6-9.6,13.5-14.7.3-.3.7-.6.7-.6.6-.9,1.1-1.5,2.1-2.4.2,0,.2-.4.2-.4,0-.4.6-1.3.6-1.3.4,0,1.2-.3,1.9-.8,0-.2.2-.8.2-1.6.6-.3,1.1-.6,1.5-.8.8-1.3,1.5-2.6,2.6-4.4,1-1.2,1.7-1.9,2.4-2.6.4-.7.8-1.5,1.6-2.6,1.1-1.1,1.8-1.7,2.5-2.4,0-.3.3-.7.3-1.4s0-.2,0-.3c.4-.3.9-.6,1.5-1.3.6-.9.9-1.4,1.2-1.9.3-.7.5-1.4,1.2-2.6,1.6-2.2,2.9-4.1,3.9-5.9l.5-.7.3-.4c.2,0,1.3-.4,1.3-.4,1.4-1.2,3.9-3.4,4.8-5.5.8-1.4,1.3-2.8,1.7-4.3h0c0,0,0-.2.2-.4,1.2-1.3,2.3-2.7,3.1-4.2.8-2,.6-4.3.7-6.3l1.8-4c.6-.5,1.4-.9,2.5-1.1-.2-1-.5-2-.7-2.9l1.8-4.1,13.5-16,3.9-21.2,1.1-7.9c.7-.6,2.5-2.5,2.5-2.5,2.1-2.1,2.2-3.9,1.1-5.3l6.4-9.6.3-5.9c0-.3.2-.6.2-.9s0-.3-.2-.4v-1.6c1.3-2.6,3.5-7.6,3.8-9.3.2,0,1.1-.7,1.3-1l7.2-5.7,3.3-10.8c.3,0,.6,0,.8.2.8.2,1.6,1,2.5,1.2.8-1.3,1.5-2.4,2.3-3.6-1.5-1-2.8-2-4.1-2.9l2.1-6.8-2.6-1.9c.9-11.3,4.2-21.8,7.7-31.2,3-2.9,3.9-3.4,5.5-5.4.2,0,1.7-1.2,1.9-1.5,1.1,0,.4-.2,1.4-.2.3,0,.9,0,.9-.4.7-1.7,1.1-2.3,1.7-3.6l.5-.7-.2-.2c-.8-1-1.6-1.9-2.5-3.3v-.5c0-1.5-.3-3.6-.3-4.4.2-1.3.4-2.6.6-4.2q0-.3-.4-.3c-2.1.4-4,.8-5.5,1.1,1-2.4,3.3-5.5,2.6-6.7-2.3-3.9-.4-6.1,2-8.7.2-.2.2-.6.2-.9.7-3.4,1.3-6.4,1.9-9.3-.5-1.8-1.6-3.7-1.6-5.6s0-3.7.2-5.7l.4-3-.2-1.1c0-1.7.2-3.5.2-5.3-.2-1.2-.2-2.6-.2-2.6,0-.4-.2-.8-.4-1.8,0-.8,0-1.5-.2-2.2.3-.8.5-1.6.5-1.8.2-2.8.7-5.2.7-7.8h0c-.5-.2-.8-.2-1.4,0,0,0,0-.2,0-.5.3-.5,0-.8,0-.8h-.3v-2.6c0-.4,0-.7-.3-.8l1.5-4.9-1-5.7c0-2,.2-5.8.2-5.8.3-2.2,0-4.3,0-6.6l.7-1.8s0-.2.2-.2c.5-.9.8-1.5,1-2.3-.3-.5-.4-.6-.8-.8h-.5c.3,0,.5-.2.8-.3,0-1-.3-1.9-1-3h-.3l-.5-4.8-.5-.4c0-.6-.5-2.2-.8-2.3,0-.2.2-.4.2-.6.6-.4.8.5.8-.7s0-2.2.3-3.4l.3-.2c2.3-.6,4.5-1.3,5.9-1.9.3,0,.4-.3.4-.4.2.4.5.7.9,1,2,1.4,3,0,5.2.3h.6c-.3-1.6-.6-3.2-.6-5.4h-.4Z"/>
    <path class="cls-1" d="M869.4,1062c.2-.4.4-.2.4-.7s0-.9-.3-1.7c0,0,0,0-.2-.2.9-.8.9-.7,1.9-1.7.4,0,1.1-1.5,1.1-1.5.4-.7.8-1.4,1.5-2.6,2.8-5.4,5.2-10.4,7.7-15.3.6-1.8,1.1-3.5,2-5.8.6-1.1.4-.8.7-1.4l.3-.5v-5.5c.2-3.7,0-6.8,0-9.8-.4-1.4-.8-2.9-1.1-5.1.2-2.5.4-4.1.4-5.8s0-1.8.2-3.3c.5-1.7.7-2.7.9-3.7,0-.6,0-1.1.2-2.3.3-1.3.6-1.8.6-2.7s0-1.8.3-3.2c0-1.2.2-7,0-8.6,0-1-.2-1.8,0-2.8.5-.7.5-1.4.5-2.4-.3-1.4-.5-2.4-.5-3.4.2-.5.3-1,.3-1.6.2-.8.4-1.7.5-2.8.3-5.5.4-13.4,0-19,.3-.7.5-1.1.3-1.5h0c2.2-9.7,4.1-20.1,5.8-29.7v-2.3c.2-2.1.5-3.4.5-4.8-.8-3.3-1.7-6.6-2.5-9.9-.9-3.7-1.4-6.9,2.6-9.7,2.2-1.6,3.2-5,5.1-8.2,1-3.1,1.5-5.7,2.1-8.2,0-.6,0-1.1.3-2.3.8-5.3,1.4-10,1.9-14.7,0-1.7-.2-3.5-.2-6.1-1.1-8.8-2.9-16.8-3.2-24.8-.5-13.5-1.3-27.2,2.5-40.5.7-3.4-.3-9.3-.8-11.4v-2.9c-.3-1.7-.8-2.9-.8-4.4.2-.9,0-1.6,0-2.7-.3-1-.6-1.6-.6-2.4-2.8-8.2-5.7-16.3-8.7-24.6.2-.3.3-.6.5-1-.3-1.7-.7-3.7-1.3-4.8-5.1-9.1-6.4-19-7.4-29.1-.9-8.9-2.6-17.8-4.2-26.4v-2c-1.7-6.7-4.1-13.5-5.4-20-1.5-7.4-4.6-15.1,1-22.4,1.2-1.6,2.2-4.9,1.4-5.9-1.4-1.7-3.3-2.8-6.5-3.1h0l-3.9-.4c-3.2,0-6.5-.3-9.1,0h-7.3c-.3,0-.4,0-.3,0-5.7,1.7-11.5,3.3-16.6,5.6-7.7,3.6-13.4,9.3-14,18-.2.4-.3.8-.5,1.2-.7,1.2-1,2.2-1.5,3.6-.4,1.8-.7,3.4-1.2,5.1-.4.5-.4.9-.6,1.5-1.1,6.9-2.2,13.5-3.4,20.4-.3,1.6-.6,2.9-.6,4.6-.7,3.7-1.4,7-2.4,10.5-.4.6-.6,1-.6,1.6-.3,1.9-.5,3.7-.8,5.5-2.3,9.7-5,19.1-5.6,28.8-1.2,19.2-2.8,38.1-7.8,56.7-2,7.5-3.5,15.5,2,23,1.1,1.5-.7,6.9-2.8,8.7-3.2,2.9-6.4.6-8.2-3.1-2-4.1-3.9-8.4-6-12.5-3-5.9-6.2-11.7-9.3-17.5-7.4-13.9-8.2-29.7-11.9-44.6-2-8-3-15.9-4.8-23.7v-.4c0,0-.6-1.5-.6-1.5,0,0-.3-.5-.4-.4v-1.4c0-.2.2-.3.3-.3,0-2.7-.5-5.8-.8-8.1v-.6c0-.6,0-.9-.2-1.3v-.6c-.2-1.2,0-2-.6-3-.4-4.1-1.1-11-1.6-14.3.8-6.6,1.1-13.2,2.7-19,2.5-9.1,2-17.2-2.9-25.3-4.2-6.9-5.3-14.7-3.6-22.6,1.3-6,3.4-11.9,5-17.8.3-1.1,0-3.2-.5-3.5-3.7-2-6.6-5.5-11.4-3.4l-1.6.3c-.8,0-1.2,0-1.9,0,0,0-.6-.3-.5-.4-.3-.2-.4-.2-.8-.4-.8-1.4-2.5-2.1-4.2-2.1h0l-5.2-12.4s0-1.4-.3-1.8c-.3-.9.4-5.9-2.3-7.2h-.2c-3.3-8.9-8.3-16.8-9.4-25.3-3.3-24.3-9.1-48-17-71.2-2.1-6.2-6.3-11.6-8.3-17.8-1.6-4.9-7.9-9.8-1.6-15.8.7-.7.3-2.5.3-3.8v-1.4c0-2.6,0-5.1-.4-7.1,0-.2-.3-1.6-.4-1.6,0,0,.2-.5.2-.6.2-.5.3-1,.3-1.3.8-2.6,2.5-5.8,2.8-8.4,0-7.8,2.9-15.4-2.7-22-1.7-2.1-2.7-4.8-4.3-7.3-.3-.4-1-1.1-1.6-1.6-1.1-1.8-4.4-3-7.6-4.7.5-2.5,1.4-6.6,2-10.6,1-6.9,2-13.8,2.9-20.7,0-.9-.5-1.9-.7-2.9-.6-3.1-1.3-6.2-1.8-9.3-.4-2.3-.2-4.8-1-6.9-2.7-6.8-5.2-13.8-8.9-20-2.1-3.6-6-7.1-9.8-8.6-9.8-3.9-20-6.6-29.7-9.7,1,6.3,2.4,12.8,3.1,19.3,1.5,13.5,2.7,27.1,3.9,40.7.5,5.6.7,11.2,1,16.8.3,4.8-.3,9.8,1,14.3,3.5,12.3,7.7,24.4,8.5,37.6.5,1.8.7,3.4,1.1,4.9,1.1,4.3,2.9,8.5,3.4,12.8.9,7.1-.4,14.6,1.7,21.2,2.2,6.9,0,10.9-4.5,14.9-.3.2-.4.7-.8,1.6,7.2-.7,12.4-4.4,17.5-8.4l.6-.3c.4-.2,1-.5,1.9-1.3.4-.3.7-.5.9-.7s.7-.1,1-.3c.6-.2.8-.2.8-.2,5.3-1.5,8.3-2.5,10.8-8.4.2-.7.3-1.2.6-1.7,2.9,10.2,6.2,20.4,8.2,30.8,4.5,23.6,1,47.1-2.2,70.5-1.2,9.1-2,18.2-2.6,27.3-.7,9.8-3.5,18.9-8.1,27.5-11.4,21.5-15.2,45.1-19.1,68.8-3,18.5-7.5,36.1-11.4,54.9l-.2.6c-.4,3.1-.9,6.3-1.1,9.8v1.5c-1.1,8.7-1.8,16.9-2.6,26l-.2.9c0,.7,0,1.8.3,2.8,0,0,.2.2.3.2-.6,23.1,0,46.1,8.1,68.1,2.5,7,2.7,14.3-2,20.9-.7,1-2,2.4-1.8,3.4,1.2,8.5-3.7,15.1-6.4,22.4-2.8,7.4-3.3,14.4-2,22.3v1.2c0,.3.3,3,.6,4.9-.2,1.1-.3,1.2-.3,5.5s-.5,10-4.2,14.3c-2,2.3-2.6,5.9-3.5,9.1-1.2,4.2-2.7,8.6-5.5,12.2,0,0-.2,0-.3,0-.5.3-.7.5-1.1.9-2.3,4.6-4.2,9.2-6.4,13.6-9,18.5-18.4,36.7-27.2,55.3-2.3,4.9-2.8,10.5-4.2,16.1-.3,1.1-.5,1.9-.9,3-1,2.7-1.8,5.1-2.8,8.2-1.1,4.8-2,8.9-3,13h0c-3.5-1.6-12.2-6.4-12.2-6.4-.3-.4-.4-.4-.5-.5,0-.6-.3-1.2-.5-1.2-1.4-.7-5.2-3-5.2-3-.2-.6-.5-1.1-.8-1.8-.4-.6-.6-.9-1-1.2-2.8-1-5.2-1.9-7.7-2.9,0,0,0-.2,0-.3-.9-.5-1.7-.9-2.5-1.3l-1.4-.8h-.4c-.6-.2-1.2-.2-1.8,0h-.9s-3.1-1-4.8-1.5c0-6.7-7.1-10.9-9.7-15.9h0c-1.6-.9-2.9-1.8-4.2-2.6,0,0-.5.2-1,.5l-3.5-2.7.2-.3c.2-.7,0-1,0-2-.2-.5-.2-.8-.2-.8-.9-1.4-1.8-2.7-2.6-4.2-1-1.8-1.4-3.5-2.7-5.7-.4-.4-1-.6-1-.6h-1.4c-6.6-1-8.2-6.3-11.9-10.9-1-1.3-1.3-1.5-2.2-3.2,0-.5-.9-1.5-.9-1.5-2.2-2.2-4.5-4.3-7.1-7-2.6-2.4-4.9-4.3-7.3-6.1-.4,0-4.1-.9-4.1-.9-3.1-1.6-6.3-2.9-9.5-4.2-1.5-.7-2.9-1.6-4.5-2.7-.1,0-.2-.2-.3-.2.9-1.7,1.8-3.7,2.5-6-3.8-4-7.5-7.4-11.1-10.8l-.5-.8c-1.5-1.2-3.3-2.8-5.2-3.8.7-1.8-1.5-3.1-2.6-3.9-2.7-2.7-5.9-5.6-8.5-7.8-.5-.5-1.1-1.1-1.7-2.2-.2-.9-.3-1.3-.4-1.6-.5-.6-1.1-1.2-1.8-2.4-1.8-1.8-3.3-2.9-4.9-4.1-1-.8-2.7-1.9-4.1-2.9h0c-.1-.8-.2-1.1-.5-1.6-.4-.2-1.1-.6-1.9-.8-.6-1-1.5-2.1-2.6-3.5-.5-.5-1.1-.7-1.6-.9v-.2c-.2-1-.3-1.3-.4-1.6-.6-.5-1.2-1.1-2-2-.2-.4-.2-.7-.2-.7-3.1-1.7-6.2-3.3-9.3-5-.3.4-.6.7-.9,1.1-.2-1.3-.4-2.6-.7-4.4-.5-.8-.3-.5-.5-.8h0l-.2-.5-.6-.8c-1-1.4-1.4-2-2.6-4-.3-.9-.5-1.2-.7-1.5-.2,0-.4,0-.9.3,0,0-.1,0-.2.2-1.7-2.1-3.4-4.3-5.2-6.8-.2-.4-.2-.7-.2-.7-.5-.4-.7-.6-1.4-1.1h-.2v-.3h-.1c-.1-.7,0-1.5-1-3-.6-.6-3.3-2.6-3.6-2.8-.3-.2-.3-1-.4-1.3-1.9-4.1-5-10.4-5.2-10.7,0,0-1.1-.7-1.7-.9-.1-.5-.2-.9-.3-1.3-.2-.2-1.1-1.2-2-2.3-.3-.8-.4-1.2-1-1.8l-.3-.3c.3-.5.4-.9.3-1.9-.9-1.2-1.6-1.9-2.3-2.6-.6-.6-1.1-1.3-1.7-2.5-.2-1.1-.4-1.7-.6-2.3-.5-.6-1-1.3-1.7-2.5-.7-1.4-1-2.4-1.4-3.4-.3-1.8-.6-3.5-.6-5.9.2-2.9.1-5.3.1-7.6-.4,0-1.7-.4-1.7-.4,0,0-.1-.4-.5-.7-1.4-.6-2.5-.6-3.6-.6h-.2c-1.4-1.7-2.7-3.1-3.9-4.2l-.2-.3c-.5-1.2-1-2.5-1.6-3.4-.1,0-1.1,0-2.1.2-.1-.2-.3-.4-.5-.6,0-.2.2-.4.2-.6h0s.1-.5,0-1.5c-.4-.8-.4-1.2-.4-1.5-1.2-3.2-2.5-6.5-4-10.3-.4-1.3-.7-2-1-2.7-.3-.6-.7-1.2-1.1-2.1-.4-1.9-1.8-5.5-2.1-6.8-1.2-1.9-3-4.4-4.7-6-.6-3.2-1.8-8.1-2.5-10.9-1.2-3.1-2.5-6.2-3.9-10-.4-1.8-.8-2.9-1.4-4.2-1.7-2.4-3.6-4.4-4.4-6.8-1.8-5.4-3.2-10.8-4.8-16.2l-.6-3.1-.8-.5c-1.8-2.9-4.1-5.6-5.2-8.6-1-2.7-.3-5.9-.5-8.8,0-1.2,0-2.9-.8-3.4-1.1-.7-1.9-1.3-2.3-2,0-.6-.2-1.1-.2-1.6.2-.7.8-1.4,1.9-2.3.7-.4,1.1-2,.8-2.6-3.1-5.7-.8-12.4-3.7-18.8-.3-1.8-.5-2.9-.7-3.9-1.8-2.8-2.3-5.2,2.2-6.8,0-2.7-.2-5-.5-7.3-.2-.9-.5-1.7-.7-3.2,0-1.1-.2-1.5-.2-1.9-.7-1.2-1.4-2.3-2.2-4-.5-1.7-.9-2.7-1.2-3.7-1.6-2.2-3.1-4.5-4.6-7.4v-1.9c-.3-.5-.6-.9-1.2-1.9-.8-1.4-1.3-2.2-1.8-3.1h-.7c0,0-.4-1-.4-1v-.5s.1-.2.2-.3h.2v-.6c0-.7-.3-1.2-.4-1.7-.8-.3-1.7-.7-2.9-1,.1-.2,0-.6-.2-.9-1.5-1.5-2.8-2.6-4.3-3.8h-.2c-.9-.4-1.7-.4-1.8-.3-.2,0-.5,0-.5,0v-.5c0-.5-.3-.7-.3-.7-.3-.3-.6-.6-.9-.8-1.2-1.4-1.8-2.1-3-3-.1,0-.4-.4-.5-.5-.2-.2-.4-.4-.6-.6-3.6-2.9-7-5.3-10.6-7.8-1.2-.5-2.2-.9-3.1-1.3-1.8.2-2.7.2-4.8.4h-1.7l-.3.2-2.3,5.3,1.3,1.3v.9c-.3,1.4,2,2,3.4,3h.3l2.6,2.7,1.6,1.4c-.1.3-.2.6-.4,1,0,.9.2,1.4.4,1.8-.1,0-.3.4-.3.4,0,.8-.2,2.8.3,3.3,0,0,.1.3.2.2-.2,1.5,0,2.9,0,4.3.6,3.3,1.1,6.7,1.4,10.3,0,.8.1,1.4.4,2.3.4.9.8,1.4,1,2.3,0,0-.1.7-.2.7l-.8,3.7,1.8,12.5,1,4c.9,6.5,1.6,13,2.8,19.5.9,4.8,2.9,9.4,3.9,14.2,1.3,6.5,1.8,13.3,3.1,19.8,1.6,8,3.5,16,5.6,23.9,3.3,12.1,6.6,24.1,10.2,36.1,1.4,4.7,3.7,9.1,5.5,13.7.5,1.1.5,2.3.5,4.1s.2,1.4.3,1.7c1.6,3.7,3.2,7.3,4.6,11.4-.2.7-.2,1-.1,1.3,1.5,2.8,2.8,5.8,4.3,9.3.1.5.4.8.4.8.3.6.5,1.1.8,1.7.4,1.3,1.8,4.4,1.8,4.5,0,.5.3.8.3.8.7,1.2,1.4,2.4,2.1,3.6,0,.2.4.8.5.9.1,2.1,2,4.8,3.2,6.4.2.4.3.8.5,1.2,0,1.1.2,1.6.4,2.1.5.7.9,1.5,1.4,2.2,3.5,6.8,7.1,13.3,10.7,19.6.6,1.4,2.2,5,2.2,5,1.1,1.2,2.3,2.5,3.6,4.3.3.9.5,1.3.7,1.6,1.4,1.9,2.8,3.8,4.3,6.3,0,.6.3.9.3.9.8.9,1.5,1.8,2.3,2.7,2.1,3.1,4,6,6.1,9,2.7,4.1,5.3,8.3,8,12.1.2.4.3.8.5,1.2.3.8.6,1,.8,1.2h.3c2.1,2.7,4.7,6,6.7,8.2,0,.2.1.4.2.5.6.9,1,1.3,1.4,1.7.2.2.4.4.5.6,0,0,.1.4.3.6.5.9.7,1.1,1.4,1.7.1.2.2.3.3.5.1.5.4.8.4.8.3.3.7.6,1,.9-.2,0,.1.2.2.4,1.7,1.9,2.7,2.7,4.6,4,.3.3.6.6.9.9,0,.5.2.9.2.9.2,0,.3.2.5.3v.6c.3,1,.5,1.7.9,2.1,8.9,9.4,17.8,18.8,26.8,28,2.5,2.5,5.3,4.6,8,6.9.6.5,1,1.2,1.6,1.7,1,.9,2.7,2.4,4.3,3.7.1,0,.3.3.5.4.2.2.5.4.7.5,5.5,5.3,11.9,11.7,17.3,16.5,3.3,2.9,6.7,5.7,10.4,8.1,7,4.6,14.2,8.8,21.2,13.3,7.6,4.8,15.1,9.7,22.6,14.6.2.3.5.7.8,1h0l.8.4c5,2.5,9.6,5.5,14.6,6.8,4,1,7.7,1.6,10.6,5h4.5c3-1.6,5.9-3.9,10-.8,1.5.7,3.3,1.3,3.2,1.2.2.2.3.3.8.4,0,0,.2.2.2.6.5.4.8.4,1.3.6,0,0,0,.2.2.3.6.6,3.2,1,3.5.6h0c.3,0,.5,0,.7,0,.2,0,.3,0,.5.2.9.7,1.6.9,2.3,1l.3.3c2.3,1.3,5.5,2.4,8.2,3.2,2.9,1.2,6.1,2.1,9.4,3h0l.3.2h.6c.7.4.9.4,1.4.4v.3c-.7,13.8-1.3,26.6-1.5,39.5h.2c0,0-.2.3-.4.4-.6,0-1-1.1-1,.4s-.3,2.6-.3,4.2c.2,1.6.4,2.9.6,4.2.4,3.3.9,6.7,1.1,10.1,0,.4-.2.9-.2,1.4-.2.6-.4,1.4-.6,2,0,2.4,0,4.7.4,6.4.4-.2.5,0,.5,0,0,0,0,0-.2.2-.2.9-.3,1.6,0,2.4-.8,2.8-1.5,6-1.7,9.3v7c.6,4.2,1.1,8.1,1.6,11.9h0v1.5c.5,4,1.3,8,2.3,11.8,1-1.4,1.9-3.1,2.5-4.6,0,0,.2-.2.3-.4,0-12.1-.6-23.8-1.1-35.4v-.2h0v-.3c0-3.3,0-8.9-.5-12.5,0-.2,0-.5,0-.7.9-.7,1.8-1.7,2.1-2.1v-14c0-1.5,0-2.6-.5-3.6h0v-.2c.6-.9.8-1.7,1.1-3.2,1.1-11.5,2-22.2,3-33,.7-.3,1.3-.6,1.9-.9,5.1,2.9,10,6.3,15.3,8.5,2.1.9,6.7.2,7.7-1.4,2-3.3-1.6-4.6-4.2-5.7-5.4-2.2-13.1-6.1-19.3-8.7,0-1.9.2-3.6.2-5.2l.3-2c2.1-6.7,4.3-13.3,6-19.8l1.1-2.6c.2-.4.3-.6.3-.9h0c1.2-2,2.7-4,3.2-5.9v-.2h0c2.8-6,4.8-11.7,7-17.4,2.4-6,4.8-12,7.3-18,0,0,.3-.5.4-.6.4-.7.4-.9.5-1.6,2.3-.7,3.3-5.1,3.9-7,0,0,0-.6,0-.7v-.2c.6-.6.8-1.1,1-1.4,0-.3.2-.6.3-.8,3.8-7.9,9.4-15,10-23.9,0-.8.3-1.7.8-2.3.9-1.3,2-2.8,3.3-3.2.7-.2,2.3,1.6,3,2.8,2.9,4.8,21.3,38.4,23,52.2,2.5,21.5,7.6,42.6,5.4,64.4-.6,6.3-2.5,12.6-2.3,18.8.4,11.8,2.2,23.5,2.8,35.2.7,13.4,1,26.8,6.5,39.5,1.5,3.3,1.1,6.5,1.6,10.2v.7h-.3c.2,1.1.5,2.1.5,3.5.2,1.5.5,2.7.7,4.2,0,1.4.4,2.4.4,3.8,1.2,4.5,2.6,8.6,4,13.4v1.9c.2,1.5.6,2.9.6,4.8.8,4.3,1.8,8.3,3,12.9.9,3.2,1.6,5.7,2.4,8.3,2,4.7,4,9.4,6.3,14.6.6,1.2.9,1.8,1.3,2.4,3.4,0,5,2,5.6,5.8.2,1.5.4,2.4.4,3.3.9,3.5,1.9,7.3,2.8,11.3,0,3.1,4.1,5.7,6.1,7.9.6,2.8,1.3,4.7,1.9,7.1l.2.6v1c.2.7,0,1.4.5,2.2s1.4,2.3,3.2,2.6c3.2,1.8,4.8,4.1,3.5,8.3-1.1,3.8,1.7,6.1,5.5,5.9s5.5-3.1,2.5-6.8c-.3-.4.5-1.5.5-2.9-.3-1-.5-1.5-.8-1.9-.6-5-5.7-12.3-9.5-13.6-.2-.5-.3-1-.4-1.4.2-.5-.2-1.1-.6-1.7-.2-.4-.5-.8-.9-1.4-1-3.4-1.7-6.4-2.4-9.3-.2-1.6-1.3-2.9-2-3.3h0c0-.2-.2-.3-.3-.5-1.5-5.7-2.7-10.8-4-15.9-.9-7-1.8-14-2.8-21-.5-3.8-1.2-7.5-1.9-12.1-1-3.8-1.9-6.9-3-9.6-.2,0-.2.6-.6.7v-3.2c-5-7.4-8.2-15.4-8.7-25.1,0-1.2-.2-1.6-.2-2-.9-6.2-1.7-12.3-2.3-19.2,1.8-15.8,2.9-30.9,5.3-45.8,3.3-20.4,6.4-40.7,7.9-61.3,1.9-26.6,4.2-53.1,1.4-79.7-1.8-16.3-3.3-32.7-4.9-49.1-.2-.8-.5-1.5-.5-2.6s-.3-2.4-.5-3.8c-.4-3.1-.8-5.8-1.2-8.9v-2.3c-.4-5.6-.9-11-1.3-16.8v-2.1c-.2-5-.4-9.7-.6-14.8.2-2.5.2-4.6.2-7.1.2-1.9.3-3.4.7-5.3,1.3-5,2.2-9.8,3.1-14.8.2-.7.6-1.5.9-1.8,1.3-1.7.3-4.3.9-6.3.2-.9.4-1.9.9-3.4,2.4-5.7,4.5-10.7,6.6-15.7.4-1.1,1-3.3,1.7-4.9,1.2-2.5,1.8-3.3,2.7-5.2,1.5-3.8,2.9-7.8,4.8-12,.9-.7,1.5-.9,2-1.2.4-.8.6-1.8,1.4-2.7h.6c1.2-1.7,2.3-3.4,3.5-5.1.5.2,1,.3,1.5.5,1.9,7.2,3.7,14.3,5.7,22.2.6,3.2,1.2,5.6,1.8,8.1.5,1.5,1.1,2.6,1.8,4.7v2.7c.4.7,2.7,5.7,3,6.1v1c.2.6.2.8,0,.9-.2.4-.2,1-.2,1.4h0c0,.5.2.6.6.7,0,.6,0,1.2.2,1.8,0,.6.3,1.1.4,1.7.5,3.2,1.1,6.5,1.9,9.6.7,2,.9,3.6,1.5,5.1-.2,1-.2,1.8-.2,2.8.2.7.4,1.4.7,2.1.3,1.7.6,3.6.9,5.8.6,11.8,1.1,22.9,1.6,34,1,1.6,2,3.1,3.5,4.9,1.9.4,2.8.6,4.1.8h.9c2.1.9,3.6,1.1,5.9,2.7,0,4.2,0,8-.3,11.9-.3,3.2-.9,6-1.1,8.8-1,14.5,9.1,32,13.4,44.6,0,0,.2,0,.4.3l.3,1.1c3.3,7.2,6.9,13.1,9.6,20.1,1.6,4.2,1.1,9.2,2.2,13.7,1.4,5.5-.6,9.6-4.3,13.4-1,1-.9,2.7-.9,3.5,0-.2,0,1.3-.6,2.1h0c3.7,1.4,7.4,3.6,11-.6,0-.2.8-.7.6-.6,1.3-.6,1.8-2.1,1.8-3.5-.2-6.5-.3-13-1.1-19.4-1-7.4-2.8-14.6-4.2-21.9-.2-.9-.3-2-.4-3.2,0-3.3,0-7.4-.8-10,.2-1.4.5-3.2.7-4.6,3.4-7.8,6.5-15.6,9.2-23.2.8-2.4.9-5.1,1.2-7.7,0,0,0-.3.2-.4,0-.7.4-1.7,0-2.1h-.7c0-.2.2-.5.2-.7.5-.8.5-1.3.5-1.9v-.3h0c0,0,.3.8.3.8l.3-.5c.2-1.5.2-2.6.2-4.1h0c0,0,.2,0,.2,0l.2-.6c.2-.8-.2-1.1-.2-1.7,1.6-4.1,3.2-8.8,4.4-13.2.3-2.1,1-4,1.1-5.6h0c.3-.6.6-1.8.6-2.5,1.2-.8,2.1-3.2,2.1-4.8s0-.3-.2-.5c1.2-1,2.3-2,2.5-2.4.4-1.1.8-2.2,1.3-3.9,1.2-4.4,2.8-6.3,2.8-10.2v-.7h0c1.3-2.2,3-5.2,3-5.5.2-1.4,2.4-7.3,2.4-8.3h0v-.2c0,0-.3,0-.4-.2,2.3-6.6,4-13.3,6.4-20,.2-.5.6-1.1.8-1.5.4-1.7.6-2.6,1.1-4.4.5-1.4.7-2.5,1.1-3.9.2-.8,0-1.2.2-2s0-1.2.3-2c.2-.9.2-1.4.4-2.2.3-1.9.4-3.6.6-5.7,1.5-6.5,2.9-12.7,4.5-19.1.6-3.4,1-6.4,1.5-9.9.3-3,.5-5.5,1-8.3.3-.3,0-.7.3-.9.6-1.8,1.1-3.5,1.6-5.6v-.3c.2,0,.3,0,.5.2,1.4-.9,2.7-1.8,4.5-3,1-.7,1.5-1.1,2-1.4.8-1,1.5-1.9,2.8-3.7,1.5,3.4,2.5,5.6,3.7,8.4.7,3.3,1.2,5.8,1.7,8.4,1.2,4.1,2.4,8.2,3.8,13,.8,2.9,1.3,5,1.8,7.2.3.8.6,1.6,1,3,.2,1.1.2,1.6.2,2.1.5,3.8,1,7.6,1.5,12.1-.3,1.4-.5,1.9-.5,2.6v1.6c-.3,5-.5,8.8-.8,14.6-.2,1.9-.2,3-.2,4.1v5.9c.2,2.5.2,4.2.2,5.9.3.9.5,1.7.8,3.2.2,1.8,0,2.8.2,3.9s.3,2.3.5,4.1v3c-1.2,6.1-2.4,12.2-3.8,19-.6,1.7-1.2,2.7-1.3,4.3.7,5.1.8,10,2.3,14.4,2.8,8.2,6.2,16.3,9.8,24.2,3.9,8.6,2.3,17.3,1,26-.6,4.1-1.9,8.6-4.2,12-6.3,9.4-9,19.2-6.3,30.5,1.3,5.6,1.7,11.4,2,17.2.2,2.6-.3,4.8-.6,7.2-.6,5.1-2.1,14.9-2.5,20-.5.8-1.1,1.6-1.4,2.3-4.4,10.2-7.9,20.7-9.6,31.8-1.2,7.6-3.2,15.3-5.7,22.6-1.7,5-4.3,9.8-7.4,14-4.5,5.9-9.8,11.2-14.7,16.8-.8.9-.9,1.9-1.4,3,0,.2-.2.4-.2.5v.2c-.9,1.1-.7,2.6-.6,3.8-1.3.6-2,1-2.7,1.5l-.7.4c-1.2.6-2.4,1.2-3.4,2-.3.2-.7.3-1,.5-.2,0-.4,0-.8.2h-1.3c-2.9.3-5.4.7-7.8,1.3.8.7,1.6,1.2,2.3,1.7-.6.6-1.1,1.2-1.7,1.8h8.8c3.1-1.1,6.2-2.5,8.6-3.9.3,0,.7-.4.9-.5h0c2.2-2.1,4.1-3.7,5.6-5.6,0,0,.3,0,.5-.2.2,0,0-.4.2-.4,13.8-9.7,23.5-21.8,31.2-36.5,5.3-9.9,12.2-18.9,18.1-28.5,2.2-3.4,3.6-7.5,5.3-11.6,0,0,0-.2.2-.2l-.5.7ZM648.6,388c0-6.3-3.5-11.7,0-17.9,1.2-2.1-.4-5.4-.4-8.2h0c1.8-5.9,2-10.8.8-16.3-1-4.7,1-9.9,1.8-15.8,3.4,7.9,6.3,14.4,9,21.1,4.2,10.6-1.5,30.6-11.2,37.1h0ZM672.9,431.1c-2.6.2-4.8.2-7,.2,0,.4-.3.7-.3,1.1,1.1.7,3.2,3.1,4.7,3.7.2.6,1.4,1.6,2.1,2,.8,10.5-6.2,15.7-13.7,20.9-1.6.9-4.2,2.6-7,4.1,2.5-8.4-2-15.9,1.5-23.8,1.6-3.5.6-8.3.6-12.5s-.2-8.9-.6-13.4c-.7-6.9,1.4-12,8.4-14.6,4.4-.6,7.6,1.4,8.2,5.3,1.2,8.7,2.1,17.5,3.3,26.6v.5h-.3,0ZM717.4,740.6c-5.4,4.1-4.6,10.1-5.4,15.8-.8,5.5-1,12.6-4.5,16-4.2,4.1-4.5,8.4-5.5,13.1-.4,1.7-1.5,3.3-2.7,5.8-3.1-6.6-3.8-12.3-2.6-18.1.9-4.1,2.7-8,3.5-12.1,1.6-8.6,2.7-16.2,4.1-24.9v-2.3c0-3.5-3-5.5-6.4-8.5-.5-2.6-1.4-4.9-.7-6.5,1.9-4.9,6-11.3,8.2-16.2,2.8-3,6.2-5.1,11.7-5.1.7,12.8,1.5,25.6,2,38.3,0,1.6-.6,3.8-1.7,4.6h0ZM733.4,852.4h0Z"/>
    <path class="cls-1" d="M589.7,417.1c4.9.8,10.2,1.5,14.3,4,3.1,1.9,4.6,6.6,6.8,10.4.3.2.3.5.3.5,0,.3.5.3,1.1.7,1.1,2.1,2.7,4.9,3.7,6.9,1.7,3.8,2.7,7.2,4.5,10.2,4.5,7.5,9.7,14.6,10.6,23.7.3,2.4,1.3,4.7,1.9,7.1.6,0,1.1-.2,1.7-.2-.3-4.1,0-8.4-1-12.4-1.4-5-3.9-9.6-5.8-14.5-2-5.3-3.8-10.8-6-16.5-1-2.3-1.7-4.3-2.4-6.3-.9-2.6-2.4-7.4-3.6-11.2.2-5-1.7-7.3-5.6-8.9-4.7-1.9-9-4.6-13.6-7.1,1.9-5.7,4-11.4,5.7-17.3.6-2.1.4-2.9.4-6.7s-.5-7.6-.2-11.4c.5-6.9,1.5-13.7,2.2-20.6,0-1.2-.4-2.6-1-3.8-5.3-10.5-10.7-21-15.8-31.6-1.9-4-5-5.8-9.1-6-13.5-.7-25.3-1.5-39.1-1.9h0c-2.8-.9-6.2-.2-8.4.9-.5,0-.8,1.2-1.2,1.9,2.7,1.2,6.1,1.9,3.9,6.5.2.4.5.5.7,1,4.9,2.8,5,7.8,6.1,12.7.7,1.6,1.3,2.8,1.9,4.4.2,1.7.5,3,.8,4.8.3,1.5.6,2.6.9,4,.5,1.8,1,3.3,1.6,5.1.7,2.5,1.3,4.5,2,7,.3.8.6,1.3.8,2,2.7,6.2,7.1,11.6,6.5,19.1,0,.9.3,1.4.3,2.2.6,2,1.2,3.8,1.8,5.9.5,1.5.9,2.5,1.4,4,.7,3.4,1.3,6.4,1.9,9.9.3.9.6,1.4.8,2.2,2.1,7.7,4.2,15,6.3,22.7.4,1,.9,1.6,1.1,2.4-.2.9,0,1.6,0,2.7.6,1.5,1.2,2.6,1.8,4.1.5,1.1,1,1.8,1.5,2.8,0,.3.2.6.6.7.7,1,1.5,1.5,1.8,2.5.6,2.1.9,4.3,1.3,6.9.3,1.5.6,2.6.9,4,.2.8.5,1.3.7,2.1.3,1.7.7,3.1,1.1,4.9.4,1.7.9,3.1,1.4,4.8.2.9.5,1.4.7,2.2.7,1.7,1.3,3.1,2.1,4.9.4.4.7.6.7,1.2,1.6,3.5,3.1,6.9,4.6,10.6,2,6.2,4,11.9,6.1,17.7.4,0,.9-.2,1.4-.2,0-3-.4-5.9-.4-9.3-.2-1.6-.4-2.7-.6-4.2,0-1-.3-1.7-.5-2.8-.2-1.5-.5-2.6-.7-4.1.2-.4,0-.6,0-.8-.5-.9-1-1.6-1.3-2.5.2-.5.2-.9.2-1.6-.5-.5-1.4-.7-1.4-1-1.2-8.7-2.1-17.5-3.6-26.1-1.1-6-3.4-11.7-4.7-17.7-1.2-5.8,1.3-8.5,7.1-7.6h0ZM581.3,414.2c-4.9-5.4-5.8-11-6.7-16.8-2.6-17.6-5.4-35.1-8.3-52.6-.4-2.5-1.6-4.9-2.6-7.6,4.4-1.3,7.9-1.5,10.1,3.7,1.5,3.6,4.2,6.7,6.4,10l.5.7c4.2,6,6.5,11.1,5.8,18-.2,1.2.2,2.6.8,3.8,5.1,10.5,2.5,21.1,0,31.6-.8,3.2-3.8,5.9-6,9.2h0Z"/>
    <path class="cls-1" d="M997.8,524.2c-.7,1.7-.9,2.8-1.5,3.8-5.2,9-10.4,17.9-15.6,26.8l1,1.2c1.3-.3,3-.3,3.8-1.1,2.2-2.3,3.5-5.5,6-7.4,4.7-3.6,5.8-10.8,12.4-12.5,6.1-9.2,12.2-18.4,18.3-27.6.6-.8,1.1-1.8,1.8-2.4,13.5-11.5,20.3-27.7,30-41.8,3.9-5.7,8.9-10.7,13.4-16,.4-.5,1.1-.8,1.4-1.3,6.1-11.8,17.5-19,25.6-29,2.7-3.4,6.6-5.9,10.5-9.3,1.2-2,2-3.7,3-5.7-3.5-.4-6.2-.7-8.8-1-3.5.8-7.1,2.3-10.6,2.1-3.2-.2-5.3-2.2-8.4-3.4,0-.5,0-1-.5-1.5-.6,0-1.7,1.7-2,2.7-2.6,10.1-10.5,16.7-16.3,24.7-5.7,7.9-11.3,16-17,23.9-.5.6-1.3,1.2-2.2,1.8h-.4c-.2-.2-.8-.4-1-.2,6.9-25.8,13.7-51.4,20.2-77.5-.7-.5-1.2-.5-1.8-.2-28.7,39.3-62.5,74.5-86.9,116.5-.6.4-.9.8-1.1,1.3-.5,0-.4-.4-.7,0h0l-.2.2-.3.2-.4.4c-.8,1.1-.9,1.7-1.6,2.5,0,0-.3.2-1,1.2-2.3,3.8-3.9,6.2-6.1,9.7-1,1.5-1.9,3.1-3.3,5.1-6,4.8-8.3,11-9.7,17.8,3.9-3.2,7.1-6.9,10.2-10.8,5.1-6.4,10-12.9,15-19.4,2.2-2.2,4.4-4.4,6.5-6.6,9.1-9.6,18.1-19.3,27.3-28.9,1.8-1.8,4-3.3,6.1-5.1,2.2,13.4.7,26.2-4.2,38.6-3.7,9.2-7.2,18.4-11,28.3h.1Z"/>
    <path class="cls-1" d="M903.3,493.8c.5,0,1.1,0,2.3.2,3.5,1.1,6.6,1.6,9.3,3,4.5,2.4,8.8,5.4,13.3,8,3.6,2,7.2,3.8,11.7,6.2,7.9-9.8,14.2-21.6,13.1-36.2-1.1,1.2-2.8,2.2-3.2,3.6-2.1,6.7-6,12.1-11,16.9-2.3,2.2-4.1,2.5-6.8.6-3.8-2.6-7.8-4.9-11.9-6.9-5.1-2.6-6.5-5.8-4.2-10.8,3.5-8,7.1-16,10.8-23.9.7-1.4,1.9-2.7,3.1-4.2.7-1.3,1-2.4,1.6-3.7.2-.3.5-1,.5-1.4.5-1.6.8-1.9,1.3-3.1.2-.5.3-1.1.7-2.2,1-1.7,1.7-2.7,2.6-4.2.8-1.4,1.4-2.3,1.4-2.3,0,0,7.3.2,7.4.2h0c6.8,2,13.3,3.8,20.9,6-1-2.7-1-4.3-1.8-5-5-4.5-10-9.1-15.3-13.1-2.4-1.8-3.6-3.5-2.1-6.1,3.6-6.4,7.4-12.6,11.1-18.8,3.3-5.6,7.6-10.8,9.6-16.8,2.3-6.7,5.3-10.8,12.7-11.2,11.7-.6,15.3-3,13.1,11.9-.7,4.7-1.5,9.5-2.2,14.2.5.4,1,.7,1.5,1,1.9-2.5,4.1-4.9,5.8-7.6,1.5-2.4,2.2-5.2,3.4-7.7,3.7-7.8,7.4-15.5,11.1-23.6,1-4,1.9-7.6,2.8-10.8-2.6-1.1-4.7-2-6.8-2.8-3.3-1.2-6.6-2.9-10-3.4-10.2-1.3-18.3-6-25.4-13.6-1-1-1.7-1.8-3.1-3.3-.3,2.5-1.3,4.8-.6,5.4,3,2.8,1,5-.4,7.4-5.1,8.9-10.1,17.7-15.2,26.6-.5.9-1,1.8-1.3,2.7-6.3,16.8-12.8,33.8-18.7,50.8h0c-1.3,1.4-1.6,2-2.5,3.8l-.3,1.1c-3.2,8-6.4,15.7-9.5,23.4-1.5,3.7-2.6,7.6-4.2,11.2-2.4,5.6-4.7,11.3-7.7,16.6-3,5.4-6.7,10.3-10,15.4-2.5,3.8-1.2,5.8,3,6.5h.1Z"/>
    <path class="cls-1" d="M886.5,482.3c0-.1,0-.3.2-.4,4.8-10.4,9.2-20.2,13.2-30.2,2.2-5.5,3.8-11.3,5.2-17,1.5-6,1.8-12.4,3.8-18.2,1.3-3.5-.2-4.3-2.5-4.9-6.9-1.8-13.8-3.6-20.7-5.1-2.5-.5-5.1-.4-7.6-.5l-.5,1.4c5.7,3.4,11.5,6.8,18.2,10.8-1.5,7.2-3.2,15.4-4.7,23.7-1.9,10.8-10.9,16.3-17.4,23.5-1.8,2-4.5,1.6-4.5-2.2.2-4.5.7-9,.7-13.5.3-10,.6-20.1.8-30.2,0-2.3-.5-4.7,0-6.9,2.5-11.9,5.2-23.8,7.8-35.6.8-.5,1.3-.7,1.9-1.2.2-.2.5-.4.8-.5.5,0,2.1-2.1,2.3-2.9h0v-.4c1.1-1.6,2.1-2.9,3.1-4h.2c1-1.3,1.4-3.5,1.4-4.4v-.3c0-.3,0-.5,0-.8,0,0,.2-.3.3-.5,1-2.3,1.7-3.9,2-6.1v-.3c0-.2,0,0,.2-.7,1.4-3.8,2.6-7.2,3.6-10.6,0,0,0-.2,0-.2.6-.9.8-1.6,1.1-2.3.8-.4,1.8-1.2,2.3-1.7.2-.3.4-.6.8-1,2.1-3.6,3.6-7.6,8.7-7.5,1.2,0,2.3.7,3.7,1.3.9.4,1,.5,1.9.8.2.2,1,.3,1.5.3,1.9,1.7,2.7,2.5,4.1,4.2,0,0,.5.7.8.9.3,0,.5.3.7.6.7,1.1,1,2.2,1.5,3.5,0,1.5.8,2.9,0,5.1-3.6,9.6-7.8,18.4-16.9,23.4,3.8,4.6,6.9,1.7,9.2-1,9-10.5,19.3-20.3,21.9-34.8.4-1.9,0-4.2-.7-5.9-4.5-8.9-12.6-12.3-21.1-15.8-.4-.1-.9-.3-.9-.2-1.9-1-3.7-1.7-5.4-2.5-3.5.3-7,.5-11.1,1.1-1.5,2.7-2.3,4.7-3.2,7.1,0,.2-.3.4-.3.4-1.6.9-4.1,1.9-4.3,2.5-.7,1.4-1.9,4.1-2.5,4.7-2.3,2.1-4.2,3.8-6.2,5.5l-.2.3c-.2.6-.5,1.1-.2,1.4,0,.1,0,.2,0,.3-.8,1.4-1.1,2.7-.9,3.8h0c-1,2.6-1.9,5.4-2.1,7.7-1.5,1.6-2.8,3.1-4.1,5.1,0,.3,0,.5,0,.6-.5,1.2-1,2.5-1.1,3.7-.5.4-1.3,1.3-1.3,2.1-1.2,2.9-2.2,5.2-3.4,7.9-.5,1.2-1.1,2.5-1.2,3.4-.7.3-.9.6-.9.9h0c-.6,1.4-1.6,3.1-1.7,4.3,0,0-.2,0-.2.1-1.3,2.1-2.1,3.8-2.8,5.6,0,.2,0,.4,0,.6,0,.3-.2.5-.3.7,0,.3-.3.7-.5,1.1-.9,2.5-1.3,4.6-1.7,6.7,0,.8,0,1.7-.2,3.1-.5,2-.6,3.5-.8,4.9v.2c-.2.6-.2,1.1,0,1.5,0,.2,0,.8,0,.9-.5,2.6-.6,3.7-.8,5.8,0,0,0,.5,0,.4,0,0,0,.4,0,.3,0,4,0,7.8.2,11.3v1.4c0,3.8.3,6.9.6,10,0,.1,0,.3,0,.4,0,.7,0,1.5.3,2v.7c0,2.3.3,3.6.5,5.4v.6c0,.3,0,.8,0,.7.2,1.6,0,2.2.5,3.4v.7c0,2.1.2,3.6.4,5-.2,1.1-.3,2.6,0,3.3-.5,3.7-.6,6.7-.8,9.8,0,.5,0,1.1,0,1.6,0,2.8.2,5.4.4,7.6v1.1c.6,1.4,1.4,2,2.1,2.6,0,0,.3.1.4.2.6.5,1.4,1.1,1.9,1.3h0c1.8,1.1,3.2,1.7,4.7,2.2.3.1.4,0,.6,0,0,0,.4,0,.3,0,.7,0,1.5.3,1.9.1h0c3.4,0,6-.3,9-.5h.6c.5,0,.9,0,1.2-.2,0,0,.3,0,.5.2-.3,1.9-.7,3.1-1.1,4.3,0,.2,0,.4-.2.6-3.1,6.1-6.4,12.8-9.1,18.6.4.3.9.7,1.3,1,1.5-1.8,3.1-3.7,4.6-5.5,1.6-1.9,2.6-4,3.9-6h1c.6,0,.9-.4.9-.4,1.5-2.6,3.1-5.2,4.1-7.7v.3Z"/>
    <path class="cls-1" d="M543.1,1068.5"/>
    <path class="cls-1" d="M826.7,307.5c0,1,.5,2.8,1.9,2.8s2.7-1,4.1-2c-1.2-1.3-2.3-2.6-3.7-3.1-.4-.2-2.3,1.5-2.3,2.3h0Z"/>
  </g>
  <path class="cls-1" d="M1198.9,693"/>
  <path class="cls-1" d="M659.1,1048.6"/>
  <path class="cls-1" d="M770.6,978.3"/>
</svg>